<?xml version="1.0" standalone="no"?><!DOCTYPE svg PUBLIC "-//W3C//DTD SVG 1.1//EN" "http://www.w3.org/Graphics/SVG/1.1/DTD/svg11.dtd"><svg t="1512528924709" class="icon" style="" viewBox="0 0 1024 1024" version="1.1" xmlns="http://www.w3.org/2000/svg" p-id="3857" xmlns:xlink="http://www.w3.org/1999/xlink" width="200" height="200"><defs><style type="text/css"></style></defs><path d="M646.234952 1010.668381c-29.273785 22.166158-41.200141 14.516424-20.178431-7.228095a182.629867 182.629867 0 0 0-47.404257-291.231994 208.651009 208.651009 0 0 1-79.207874-144.260729c0-22.226392 4.517559-32.044554-11.143313-24.09365s-312.615108 158.897621-66.799644 459.887544c15.660872 19.576091 9.035119 24.09365-20.238666 9.818162C-269.323746 624.146002 620.274045 9.757928 633.886957 2.529833s9.095353 4.698262-2.04796 29.454487c-20.238666 42.705995-72.28095 283.943665 65.354025 381.70365s341.527488 298.821493-51.741113 597.703221z" fill="#FF5353" p-id="3858"></path></svg>