<?xml version="1.0" standalone="no"?><!DOCTYPE svg PUBLIC "-//W3C//DTD SVG 1.1//EN" "http://www.w3.org/Graphics/SVG/1.1/DTD/svg11.dtd"><svg t="1512528880701" class="icon" style="" viewBox="0 0 1213 1024" version="1.1" xmlns="http://www.w3.org/2000/svg" p-id="3101" xmlns:xlink="http://www.w3.org/1999/xlink" width="236.9140625" height="200"><defs><style type="text/css"></style></defs><path d="M977.7777777 992a213.33333375 213.33333375 0 1 1 213.33333376-213.33333375 213.33333375 213.33333375 0 0 1-213.33333375 213.33333375z m71.11111125-248.88888844h-35.55555562v-35.55555562a35.55555562 35.55555562 0 0 0-71.11111125 0v35.55555562h-35.55555562a35.55555562 35.55555562 0 0 0 0 71.11111032h35.55555562v35.55555562a35.55555562 35.55555562 0 0 0 71.11111125 0v-35.55555562h35.55555562a35.55555562 35.55555562 0 0 0 0-71.11111032z m-355.55555531 71.11111032a318.29333344 318.29333344 0 0 0 19.66222219 109.5822225L569.56444489 992V482.20444438L1048.88888896 278.29333344v217.99111125A326.4 326.4 0 0 0 1013.33333333 494.22222219a319.99999969 319.99999969 0 0 0-319.99999969 319.99999969zM56.46222177 244.65777781L549.36888927 32l498.915555 212.16-498.45333281 211.48444406zM534.29333333 992L53.33333333 764.08888906V278.29333344l480.96 203.91111094V992zM200.92444489 467.34222219l-1.06666687 68.05333312 185.38666687 86.29333313 1.06666594-68.05333313z" fill="#5B81FE" p-id="3102"></path></svg>