<?xml version="1.0" standalone="no"?><!DOCTYPE svg PUBLIC "-//W3C//DTD SVG 1.1//EN" "http://www.w3.org/Graphics/SVG/1.1/DTD/svg11.dtd"><svg t="1512528897220" class="icon" style="" viewBox="0 0 1024 1024" version="1.1" xmlns="http://www.w3.org/2000/svg" p-id="3317" xmlns:xlink="http://www.w3.org/1999/xlink" width="200" height="200"><defs><style type="text/css"></style></defs><path d="M309.553443 57.971924l7.482789 9.294412 1.181493 1.614707 68.526595 85.697627h231.178801l68.526595-85.855159a0.551363 0.551363 0 0 0 0.393831-0.590747l8.270452-10.16084-1.575324-2.7962a21.345641 21.345641 0 0 0 1.575324-7.088958 28.71028 28.71028 0 0 0-18.510058-26.898658L675.816279 19.337102a940.704742 940.704742 0 0 0-173.285643-19.297719 1078.74251 1078.74251 0 0 0-173.679473 19.297719l-0.787662 1.851006a28.592131 28.592131 0 0 0-18.510058 26.898658 43.95154 43.95154 0 0 0 1.181493 7.285874l-1.181493 2.599284z m319.790777 154.302989H394.620941C210.701861 276.3906 59.076923 479.686166 59.076923 674.474982 59.076923 909.592093 192.979465 1024 511.982581 1024S964.888238 909.592093 964.888238 674.474982c0-194.788816-151.624938-398.084381-335.544018-462.200069z m8.270452 463.854159a38.634822 38.634822 0 0 1 0 77.23026h-77.97854v38.910504h-0.393831a72.189223 72.189223 0 0 1 0.787662 9.373178 48.047383 48.047383 0 1 1-96.094765 0 72.189223 72.189223 0 0 1 0.787662-9.373178h-0.787662v-38.910504H386.74432a38.634822 38.634822 0 0 1 0-77.269643h77.190878v-38.437906H386.74432a38.674205 38.674205 0 0 1 0-77.309027h70.495751a15.75324 15.75324 0 0 1 3.150648-6.813276L374.141728 466.886658a40.446444 40.446444 0 0 1 53.954848-54.427445l84.673667 84.752433 78.37237-83.649706a37.374563 37.374563 0 0 1 51.985693 5.198569c14.965578 15.201877 22.448367 29.064728 7.87662 45.841929l-91.368794 93.298566a5.277335 5.277335 0 0 1 0 2.481135h77.97854a38.634822 38.634822 0 0 1 0 77.230261h-77.97854v38.477289h77.97854z" fill="#FFBA34" p-id="3318"></path></svg>