<?xml version="1.0" standalone="no"?><!DOCTYPE svg PUBLIC "-//W3C//DTD SVG 1.1//EN" "http://www.w3.org/Graphics/SVG/1.1/DTD/svg11.dtd"><svg t="1512528815840" class="icon" style="" viewBox="0 0 1154 1024" version="1.1" xmlns="http://www.w3.org/2000/svg" p-id="2237" xmlns:xlink="http://www.w3.org/1999/xlink" width="225.390625" height="200"><defs><style type="text/css"></style></defs><path d="M1030.749203 445.284531l-21.886619 10.30335a19.710756 19.710756 0 0 0 0 35.581754l35.709746 17.214913-458.275071 225.969736a22.590574 22.590574 0 0 1-17.27891 0L109.207375 509.536476l35.709746-17.214914a19.710756 19.710756 0 0 0 0-35.581754l-21.886619-10.303349a22.590574 22.590574 0 0 0-17.278909 0l-94.394041 45.885103a19.710756 19.710756 0 0 0 0 35.581754l556.124894 271.854839a22.462582 22.462582 0 0 0 17.27891 0l556.124894-273.006766a19.710756 19.710756 0 0 0 0-35.581754l-94.458037-45.885104a19.64676 19.64676 0 0 0-15.67901 0z m97.849823-177.780777L588.601113 2.560478a29.694126 29.694126 0 0 0-24.190473 0l-538.845985 264.943276a27.134287 27.134287 0 0 0 0 48.188958l539.997913 263.791348a29.566134 29.566134 0 0 0 24.190473 0l539.997912-264.943275a25.598384 25.598384 0 0 0-1.279919-47.037031zM577.08184 519.839825L109.207375 290.414308 576.697865 60.98879l467.17051 229.425518z m453.667363 147.95866l-21.886619 10.30335a19.710756 19.710756 0 0 0 0 35.581754l35.709746 17.214913-458.275071 225.969736a22.590574 22.590574 0 0 1-17.27891 0L109.207375 732.050429l35.709746-17.214913a19.710756 19.710756 0 0 0 0-35.581754l-21.886619-10.303349a22.462582 22.462582 0 0 0-17.278909 0l-94.394041 45.885103a19.710756 19.710756 0 0 0 0 35.581754l556.124894 271.854839a22.65457 22.65457 0 0 0 17.27891 0l556.124894-273.006766a19.710756 19.710756 0 0 0 0-35.581754l-94.458037-45.885104a19.518768 19.518768 0 0 0-15.67901 0z" p-id="2238"></path></svg>