<?xml version="1.0" standalone="no"?><!DOCTYPE svg PUBLIC "-//W3C//DTD SVG 1.1//EN" "http://www.w3.org/Graphics/SVG/1.1/DTD/svg11.dtd"><svg t="1512528787360" class="icon" style="" viewBox="0 0 1088 1024" version="1.1" xmlns="http://www.w3.org/2000/svg" p-id="2021" xmlns:xlink="http://www.w3.org/1999/xlink" width="212.5" height="200"><defs><style type="text/css"></style></defs><path d="M1007.499855 295.570824H333.124952a56.874992 56.874992 0 0 1-53.356292-57.578732l-46.702749-165.059032A89.566916 89.566916 0 0 0 152.967498 0H0v73.124989h93.469475a76.771642 76.771642 0 0 1 81.313964 75.428139l132.686989 514.114099a92.637782 92.637782 0 0 0 91.742113 59.114165h535.41823L1087.598268 367.096404c0-25.846453 0-71.52558-80.098413-71.52558zM882.873888 650.959552l-480.398552 0.383858-93.085617-292.180076a51.181095 51.181095 0 0 0 23.735233 11.195865h668.936911z m-455.575721 153.543285A109.847425 109.847425 0 1 0 543.799134 914.158333a113.302149 113.302149 0 0 0-116.500967-109.911402z m0 146.122026a36.402554 36.402554 0 1 1 38.385821-36.338577 37.554128 37.554128 0 0 1-38.385821 36.082671z m387.824747-146.122026a109.847425 109.847425 0 1 0 116.564944 109.655496 113.302149 113.302149 0 0 0-116.564944-109.911402z m0 146.122026a36.402554 36.402554 0 1 1 38.385821-36.338577 37.490152 37.490152 0 0 1-38.385821 36.082671z" p-id="2022"></path></svg>