<?xml version="1.0" standalone="no"?><!DOCTYPE svg PUBLIC "-//W3C//DTD SVG 1.1//EN" "http://www.w3.org/Graphics/SVG/1.1/DTD/svg11.dtd"><svg t="1512528992119" class="icon" style="" viewBox="0 0 1092 1024" version="1.1" xmlns="http://www.w3.org/2000/svg" p-id="4613" xmlns:xlink="http://www.w3.org/1999/xlink" width="213.28125" height="200"><defs><style type="text/css"></style></defs><path d="M927.99999969 224v640.00000031a127.99999969 127.99999969 0 0 1-127.99999969 127.99999969H288.00000031a127.99999969 127.99999969 0 0 1-128.00000062-127.99999969V224H32V159.99999969h384V96.00000031a64.00000031 64.00000031 0 0 1 64.00000031-64.00000031h127.99999969a64.00000031 64.00000031 0 0 1 64.00000031 64.00000031v63.99999938h384v64.00000031h-128.00000062zM608 96.00000031H480.00000031v63.99999938h127.99999969V96.00000031z m256.00000031 127.99999969H224v640.00000031a64.00000031 64.00000031 0 0 0 64.00000031 63.99999938h511.99999969a64.00000031 64.00000031 0 0 0 64.00000031-63.99999938V224zM608 416h64.00000031v319.99999969H608V416zM416 416h64.00000031v319.99999969H416V416z" fill="#767D8F" p-id="4614"></path></svg>