<?xml version="1.0" standalone="no"?><!DOCTYPE svg PUBLIC "-//W3C//DTD SVG 1.1//EN" "http://www.w3.org/Graphics/SVG/1.1/DTD/svg11.dtd"><svg t="1512127558562" class="icon" style="" viewBox="0 0 1024 1024" version="1.1" xmlns="http://www.w3.org/2000/svg" p-id="2729" xmlns:xlink="http://www.w3.org/1999/xlink" width="200" height="200"><defs><style type="text/css"></style></defs><path d="M512 992a480 480 0 1 1 480-480 480 480 0 0 1-480 480z m193.85142844-620.29714313a39.22285687 39.22285687 0 1 0-55.54285688-55.40571375L511.31428531 455.08571469 372.38857156 316.22857156a39.29142844 39.29142844 0 1 0-55.61142844 55.40571375L455.77142844 510.62857156 316.77714312 649.14285688a39.36 39.36 0 1 0 55.61142844 55.74857156L511.31428531 565.89714312l138.99428625 138.99428532A39.36 39.36 0 1 0 705.85142844 649.14285688L566.85714313 510.62857156z" fill="#5B81FE" p-id="2730"></path></svg>