<?xml version="1.0" standalone="no"?><!DOCTYPE svg PUBLIC "-//W3C//DTD SVG 1.1//EN" "http://www.w3.org/Graphics/SVG/1.1/DTD/svg11.dtd"><svg t="1512529005403" class="icon" style="" viewBox="0 0 1024 1024" version="1.1" xmlns="http://www.w3.org/2000/svg" p-id="4937" xmlns:xlink="http://www.w3.org/1999/xlink" width="200" height="200"><defs><style type="text/css"></style></defs><path d="M832.87858731 961.35760214H190.48030068a128.02997901 128.02997901 0 0 1-128.4796582-128.47965819v-642.39828663a128.47965732 128.47965732 0 0 1 128.4796582-128.47965732h321.19914287a64.2398291 64.2398291 0 0 1 0 128.47965732H254.72012891a64.2398291 64.2398291 0 0 0-64.23982823 64.23982911v513.9186293a64.2398291 64.2398291 0 0 0 64.23982823 64.23982822h513.91862929a64.2398291 64.2398291 0 0 0 64.2398291-64.23982822v-256.95931466a64.2398291 64.2398291 0 1 1 128.47965733 0v321.19914288a128.47965732 128.47965732 0 0 1-128.47965733 128.4796582zM458.36038584 655.57601739a62.82655224 62.82655224 0 0 1-90.5781586 0 64.2398291 64.2398291 0 0 1 0-90.5781586L821.95781592 110.82227012a64.2398291 64.2398291 0 0 1 90.57815859 90.57815771z" fill="#C9D4DC" p-id="4938"></path></svg>