<?xml version="1.0" standalone="no"?><!DOCTYPE svg PUBLIC "-//W3C//DTD SVG 1.1//EN" "http://www.w3.org/Graphics/SVG/1.1/DTD/svg11.dtd"><svg t="1512528955603" class="icon" style="" viewBox="0 0 1024 1024" version="1.1" xmlns="http://www.w3.org/2000/svg" p-id="4289" xmlns:xlink="http://www.w3.org/1999/xlink" width="200" height="200"><defs><style type="text/css"></style></defs><path d="M512 1024A512 512 0 1 1 1024 512 512 512 0 0 1 512 1024z m0-955.733333A443.733333 443.733333 0 1 0 955.733333 512 443.733333 443.733333 0 0 0 512 68.266667zM682.666667 546.133333H614.4v68.266667H546.133333v68.266667H477.866667V614.4H409.6V546.133333H341.333333V477.866667H273.066667V409.6h136.533333v68.266667h68.266667v68.266666h68.266666V477.866667h68.266667V409.6h136.533333v68.266667h-68.266666v68.266666z" fill="#767d8f" p-id="4290"></path></svg>