<?xml version="1.0" standalone="no"?><!DOCTYPE svg PUBLIC "-//W3C//DTD SVG 1.1//EN" "http://www.w3.org/Graphics/SVG/1.1/DTD/svg11.dtd"><svg t="1512528916286" class="icon" style="" viewBox="0 0 1024 1024" version="1.1" xmlns="http://www.w3.org/2000/svg" p-id="3641" xmlns:xlink="http://www.w3.org/1999/xlink" width="200" height="200"><defs><style type="text/css"></style></defs><path d="M804.73599969 32H219.26400031A59.77600031 59.77600031 0 0 0 159.99999969 92.16000031v839.67999938a59.77600031 59.77600031 0 0 0 59.26400062 60.096h585.408A59.77600031 59.77600031 0 0 0 864.00000031 931.83999969V92.096A59.83999969 59.83999969 0 0 0 804.73599969 32zM328.89600031 869.43999969a54.20800031 54.20800031 0 1 1 53.376-54.20799938 53.82400031 53.82400031 0 0 1-53.44000031 54.144z m0-186.432a54.27199969 54.27199969 0 1 1 53.376-54.27199969 53.88799969 53.88799969 0 0 1-53.44000031 54.20800031z m0-186.49599938a54.20800031 54.20800031 0 1 1 53.376-54.20800031 53.82400031 53.82400031 0 0 1-53.44000031 54.144z m183.67999969 372.92799938a54.20800031 54.20800031 0 1 1 53.376-54.20799938 53.82400031 53.82400031 0 0 1-53.44000031 54.144z m0-186.432a54.27199969 54.27199969 0 1 1 53.376-54.27199969 53.88799969 53.88799969 0 0 1-53.44000031 54.20800031z m0-186.49599938a54.20800031 54.20800031 0 1 1 53.376-54.20800031 53.82400031 53.82400031 0 0 1-53.44000031 54.144z m183.67999969 372.92799938a54.20800031 54.20800031 0 1 1 53.376-54.20799938 53.88799969 53.88799969 0 0 1-53.43999938 54.144z m0-186.432a54.27199969 54.27199969 0 1 1 53.376-54.27199969 53.88799969 53.88799969 0 0 1-53.43999938 54.20800031z m0-186.49599938a54.20800031 54.20800031 0 1 1 53.376-54.20800031 53.82400031 53.82400031 0 0 1-53.43999938 54.144z m69.05600062-243.90400031a27.71200031 27.71200031 0 0 1-27.456 27.90400031h-448.64000062a27.71200031 27.71200031 0 0 1-27.456-27.90400031V165.44a27.71200031 27.71200031 0 0 1 27.456-27.90400031h448.512a27.71200031 27.71200031 0 0 1 27.456 27.90400031v87.168z" fill="#FDB53F" p-id="3642"></path></svg>