<?xml version="1.0" standalone="no"?><!DOCTYPE svg PUBLIC "-//W3C//DTD SVG 1.1//EN" "http://www.w3.org/Graphics/SVG/1.1/DTD/svg11.dtd"><svg t="1512528988016" class="icon" style="" viewBox="0 0 1024 1024" version="1.1" xmlns="http://www.w3.org/2000/svg" p-id="4505" xmlns:xlink="http://www.w3.org/1999/xlink" width="200" height="200"><defs><style type="text/css"></style></defs><path d="M833.42857168 962H640.57142832v-64.28571416h192.85714336a64.28571416 64.28571416 0 0 0 64.28571416-64.28571417V640.57142832h64.28571416v192.85714336a128.57142832 128.57142832 0 0 1-128.57142832 128.57142832z m64.28571416-771.42857168a64.28571416 64.28571416 0 0 0-64.28571417-64.28571416H640.57142832V62H383.42857168v64.28571416H190.57142832a64.28571416 64.28571416 0 0 0-64.28571416 64.28571417v192.85714335H62v257.14285665h64.28571416v192.85714335a64.28571416 64.28571416 0 0 0 64.28571417 64.28571416h192.85714335v64.28571416H190.57142832a128.57142832 128.57142832 0 0 1-128.57142832-128.57142832V190.57142832a128.57142832 128.57142832 0 0 1 128.57142832-128.57142832h642.85714336a128.57142832 128.57142832 0 0 1 128.57142832 128.57142832v192.85714336h-64.28571416V190.57142832z" fill="#767D8F" p-id="4506"></path></svg>