<?xml version="1.0" standalone="no"?><!DOCTYPE svg PUBLIC "-//W3C//DTD SVG 1.1//EN" "http://www.w3.org/Graphics/SVG/1.1/DTD/svg11.dtd"><svg t="1512529027422" class="icon" style="" viewBox="0 0 1024 1024" version="1.1" xmlns="http://www.w3.org/2000/svg" p-id="5261" xmlns:xlink="http://www.w3.org/1999/xlink" width="200" height="200"><defs><style type="text/css"></style></defs><path d="M512 92.41142844A420 420 0 0 1 931.58857156 512a418.90285687 418.90285687 0 0 1-123.42857156 296.57142844A419.45142844 419.45142844 0 1 1 512 92.41142844z m0-60.48a480 480 0 1 0 480 480 480.48 480.48 0 0 0-480-480m32.02285688 744.96H473.32571469V702.56h70.69714219v74.33142844M659.56571469 442.74285688a229.92 229.92 0 0 1-48 59.03999999 661.78285687 661.78285687 0 0 0-48.82285781 50.26285782 103.40571469 103.40571469 0 0 0-18.17142844 35.72571375 186.24 186.24 0 0 0-5.48571375 55.74857156H474.97142844a259.61142844 259.61142844 0 0 1 6.85714312-65.21142844 131.86285688 131.86285688 0 0 1 19.68-42.65142844 559.95428531 559.95428531 0 0 1 47.38285688-53.55428625 365.28 365.28 0 0 0 44.09142844-51.36 92.43428531 92.43428531 0 0 0 9.87428625-48 80.64 80.64 0 0 0-22.62857157-56.16 85.02857156 85.02857156 0 0 0-65.55428625-24.41142843q-96.96 0-96.96 115.2H353.6a243.29142844 243.29142844 0 0 1 12.41142844-79.81714313 129.46285687 129.46285687 0 0 1 34.97142843-48.82285687 156.27428531 156.27428531 0 0 1 53.55428626-31.68 189.73714313 189.73714313 0 0 1 62.26285687-10.21714313 160.25142844 160.25142844 0 0 1 110.4 39.01714313 131.52 131.52 0 0 1 44.09142844 103.81714312 121.85142844 121.85142844 0 0 1-11.24571375 52.8" fill="#373E4F" p-id="5262"></path></svg>