<?xml version="1.0" standalone="no"?><!DOCTYPE svg PUBLIC "-//W3C//DTD SVG 1.1//EN" "http://www.w3.org/Graphics/SVG/1.1/DTD/svg11.dtd"><svg t="1512528995813" class="icon" style="" viewBox="0 0 1024 1024" version="1.1" xmlns="http://www.w3.org/2000/svg" p-id="4721" xmlns:xlink="http://www.w3.org/1999/xlink" width="200" height="200"><defs><style type="text/css"></style></defs><path d="M511.9263125 991.83922719a438.80650031 438.80650031 0 0 1-311.14788281-129.6582825A441.36607125 441.36607125 0 0 1 72.00000031 549.03339688a446.64518719 446.64518719 0 0 1 50.39155875-205.48558125A453.044115 453.044115 0 0 1 255.969185 189.25365969a34.47422531 34.47422531 0 0 1 39.99330094 55.99062187 379.05650812 379.05650812 0 0 0-112.78110844 130.37816156 375.05717813 375.05717813 0 0 0 66.38887969 437.36674125 371.13783469 371.13783469 0 0 0 633.49389-263.9557875 371.5377675 371.5377675 0 0 0-42.39289969-173.17099406A387.45510094 387.45510094 0 0 0 727.89013812 245.56422781a34.47422531 34.47422531 0 0 1 39.99330094-55.99062093 453.044115 453.044115 0 0 1 133.57762594 154.294155A446.64518719 446.64518719 0 0 1 951.85262469 549.35334313a441.36607125 441.36607125 0 0 1-128.77842938 313.14754781 436.48688812 436.48688812 0 0 1-311.14788281 129.57829593z m10.39825781-480.47952a34.31425219 34.31425219 0 0 1-34.39423875-34.63419844V66.63419844a34.39423875 34.39423875 0 1 1 68.78847844 0V476.72550875a34.31425219 34.31425219 0 0 1-34.39423969 34.63419844z" fill="#767D8F" p-id="4722"></path></svg>