<?xml version="1.0" standalone="no"?><!DOCTYPE svg PUBLIC "-//W3C//DTD SVG 1.1//EN" "http://www.w3.org/Graphics/SVG/1.1/DTD/svg11.dtd"><svg t="1512528834180" class="icon" style="" viewBox="0 0 1297 1024" version="1.1" xmlns="http://www.w3.org/2000/svg" p-id="2453" xmlns:xlink="http://www.w3.org/1999/xlink" width="253.3203125" height="200"><defs><style type="text/css"></style></defs><path d="M82.57097562 399.08859031c-8.95650094 13.56270188-17.27325187 27.50925281-25.59000281 41.77567969A145.41519094 145.41519094 0 0 0 32.03072 511.81255344v267.86335406a82.27185937 82.27185937 0 0 0 79.32900844 84.44700937h44.14275562a149.76549187 149.76549187 0 0 0 296.20428281 0h19.83225188a74.46690844 74.46690844 0 0 0 47.98125563-17.14530187 76.77000844 76.77000844 0 0 0 47.98125468 17.14530187h212.39702344a149.76549187 149.76549187 0 0 0 296.20428375 0h92.12400937A82.20788438 82.20788438 0 0 0 1247.555855 779.7398825V116.44700937A82.27185937 82.27185937 0 0 0 1168.22684563 32H567.50152906a82.27185937 82.27185937 0 0 0-79.32900844 84.44700937v95.96251032a71.0762325 71.0762325 0 0 0-16.63350187-1.855275H267.45874625a105.17491125 105.17491125 0 0 0-70.3725075 43.63095468c-16.63350188 16.63350188-35.18625375 38.38500469-55.01850656 62.3116575l-14.71425188 18.16890188h0.63975l-1.91925 2.43105c-15.35400187 20.40802688-30.70800375 41.71170469-43.50300468 61.54395656zM927.68081937 924.96314938a94.42711031 94.42711031 0 1 1 88.92526032-94.23518532A91.54823531 91.54823531 0 0 1 927.68081937 924.96314938zM550.86802719 295.06522906V116.44700937a17.33722687 17.33722687 0 0 1 16.63350187-17.72107687h600.72531656a17.33722687 17.33722687 0 0 1 16.63350188 17.72107688v663.29287312a17.33722687 17.33722687 0 0 1-16.63350188 17.65710281h-92.12400937a154.05181687 154.05181687 0 0 0-143.94376594-127.50219h-8.95650187a153.54001687 153.54001687 0 0 0-143.30401594 127.50219H567.50152906a17.52915188 17.52915188 0 0 1-16.63350187-17.65710281V295.06522906z m-247.58327719 629.89792031a94.42711031 94.42711031 0 1 1 88.92526031-94.23518531 91.54823531 91.54823531 0 0 1-88.92526031 94.23518531z m-208.55852344-145.22326687V583.52853594h232.86902625a82.20788438 82.20788438 0 0 0 79.32900844-84.44700938V397.10536531a82.27185937 82.27185937 0 0 0-79.32900844-84.44700937H230.35324156l5.11800094-4.926075a154.69156687 154.69156687 0 0 1 35.18625375-30.38812875h200.8815225a17.40120187 17.40120187 0 0 1 16.63350188 17.72107687v484.48272844a17.27325187 17.27325187 0 0 1-16.63350188 17.65710281h-19.83225188a155.90709187 155.90709187 0 0 0-135.62701499-126.99038906H291.76924906a155.39529187 155.39529187 0 0 0-136.266765 127.11833906h-44.14275562a17.20927688 17.20927688 0 0 1-16.63350188-17.72107781z m0-262.93727906v-4.542225a153.54001687 153.54001687 0 0 1 20.47200282-44.78250469l4.47825-7.10122594-8.95650094-5.88570094 8.95650094 5.56582594-3.8385-2.81490094 3.8385 2.36707594c10.87575094-17.27325187 21.75150281-34.16265375 33.26700375-50.66820562 7.03725094-9.91612594 14.71425188-19.89622687 21.75150281-29.74837875h152.90026687a17.33722687 17.33722687 0 0 1 16.63350188 17.65710187v102.36001125a17.33722687 17.33722687 0 0 1-16.63350188 17.72107688H94.72622656z" p-id="2454"></path></svg>