<?xml version="1.0" standalone="no"?><!DOCTYPE svg PUBLIC "-//W3C//DTD SVG 1.1//EN" "http://www.w3.org/Graphics/SVG/1.1/DTD/svg11.dtd"><svg t="1512528845670" class="icon" style="" viewBox="0 0 1024 1024" version="1.1" xmlns="http://www.w3.org/2000/svg" p-id="2669" xmlns:xlink="http://www.w3.org/1999/xlink" width="200" height="200"><defs><style type="text/css"></style></defs><path d="M895.658667 0H127.658667A128.136533 128.136533 0 0 0 0 128v768A128.136533 128.136533 0 0 0 127.658667 1024h768A128.273067 128.273067 0 0 0 1024 896V128A128.273067 128.273067 0 0 0 895.658667 0z m64.170666 896a64.170667 64.170667 0 0 1-64.170666 64.034133H127.658667a63.965867 63.965867 0 0 1-63.488-63.965866L68.266667 324.266667h887.466666zM955.733333 261.666133H68.266667L64.170667 128a64.034133 64.034133 0 0 1 63.488-63.965867h768a64.170667 64.170667 0 0 1 64.170666 64.034134zM127.658667 160.017067a32.085333 32.085333 0 1 0 32.085333-32.017067 32.017067 32.017067 0 0 0-32.085333 32.017067z m128.341333 0a32.085333 32.085333 0 1 0 32.085333-32.017067 32.017067 32.017067 0 0 0-32.085333 32.017067z m127.658667 0a32.085333 32.085333 0 1 0 32.085333-32.017067 32.017067 32.017067 0 0 0-32.085333 32.017067z" p-id="2670"></path></svg>