<?xml version="1.0" standalone="no"?><!DOCTYPE svg PUBLIC "-//W3C//DTD SVG 1.1//EN" "http://www.w3.org/Graphics/SVG/1.1/DTD/svg11.dtd"><svg t="1512528874795" class="icon" style="" viewBox="0 0 1024 1024" version="1.1" xmlns="http://www.w3.org/2000/svg" p-id="2993" xmlns:xlink="http://www.w3.org/1999/xlink" width="200" height="200"><defs><style type="text/css"></style></defs><path d="M911.67471031 49.82393375L44.5792625 511.65545188a24.30692156 24.30692156 0 0 0-9.66791531 32.80920187 23.99837156 23.99837156 0 0 0 9.01653093 9.35936531l275.15847188 150.84690657L917.53716969 57.36627875a4.83395812 4.83395812 0 0 0-5.79389344-7.542345z m59.31026063-13.71335531l-579.21783844 690.46743187v241.18363406a23.99837156 23.99837156 0 0 0 40.96864875 17.14169438l121.02035906-174.36531094 307.76197313 154.92663a23.99837156 23.99837156 0 0 0 32.19210094-10.83355031 24.20407219 24.20407219 0 0 0 2.39983781-8.33086312L991.96640469 45.40137594A12.10203562 12.10203562 0 0 0 981.30427063 32.06513844a11.89633594 11.89633594 0 0 0-10.31929969 4.18257375z" fill="#35D87F" p-id="2994"></path></svg>