<?xml version="1.0" standalone="no"?><!DOCTYPE svg PUBLIC "-//W3C//DTD SVG 1.1//EN" "http://www.w3.org/Graphics/SVG/1.1/DTD/svg11.dtd"><svg t="1511854203359" class="icon" style="" viewBox="0 0 1024 1024" version="1.1" xmlns="http://www.w3.org/2000/svg" p-id="2187" xmlns:xlink="http://www.w3.org/1999/xlink" width="200" height="200"><defs><style type="text/css"></style></defs><path d="M711.68 472.6784h-399.36a22.3232 22.3232 0 0 0-22.186667 22.459733v11.195734a22.3232 22.3232 0 0 0 22.186667 22.459733h399.36a22.391467 22.391467 0 0 0 22.186667-22.459733v-11.195734a22.391467 22.391467 0 0 0-22.186667-22.459733zM502.442667 675.089067h-191.146667a21.9136 21.9136 0 0 0-21.230933 22.528v11.332266a21.9136 21.9136 0 0 0 21.230933 22.528h191.146667a21.9136 21.9136 0 0 0 21.230933-22.528v-11.332266a21.9136 21.9136 0 0 0-21.230933-22.528zM909.038933 0H114.961067A46.6944 46.6944 0 0 0 68.266667 46.6944v930.6112A46.6944 46.6944 0 0 0 114.961067 1024h565.248a82.875733 82.875733 0 0 0 39.867733-21.845333l212.104533-205.4144A88.746667 88.746667 0 0 0 955.733333 750.933333V46.6944A46.762667 46.762667 0 0 0 909.038933 0z m-11.8784 789.777067a13.653333 13.653333 0 0 0 0-1.706667v1.8432z m0-47.035734H715.776c-41.642667 0-51.882667 12.0832-51.882667 50.449067v174.6944H152.507733a25.668267 25.668267 0 0 1-25.668266-25.6V81.92a25.6 25.6 0 0 1 25.668266-25.668267h718.984534a25.6 25.6 0 0 1 25.668266 25.668267v660.957867zM711.68 258.730667h-399.36a22.3232 22.3232 0 0 0-22.186667 22.528v11.332266a22.391467 22.391467 0 0 0 22.186667 22.528h399.36a22.391467 22.391467 0 0 0 22.186667-22.528v-11.400533a22.391467 22.391467 0 0 0-22.186667-22.528z" p-id="2188"></path></svg>