<?xml version="1.0" standalone="no"?><!DOCTYPE svg PUBLIC "-//W3C//DTD SVG 1.1//EN" "http://www.w3.org/Graphics/SVG/1.1/DTD/svg11.dtd"><svg t="1512528920274" class="icon" style="" viewBox="0 0 1024 1024" version="1.1" xmlns="http://www.w3.org/2000/svg" p-id="3749" xmlns:xlink="http://www.w3.org/1999/xlink" width="200" height="200"><defs><style type="text/css"></style></defs><path d="M931.9988 420.5v478.02A91.56 91.56 0 0 1 842.5988 992H181.5788A91.56 91.56 0 0 1 91.9988 898.64V125.36A91.56 91.56 0 0 1 181.2788 32h379.26v327.36a60 60 0 0 0 58.44 61.14H931.9988z m-16.2-61.02L618.9188 49.04v310.32h296.82zM239.7188 420.5H433.9988a30.54 30.54 0 0 0 0-61.02H239.5388a30.54 30.54 0 0 0 0 61.02z m0 203.34h544.68a30.54 30.54 0 0 0 0-61.02H239.7188a30.54 30.54 0 0 0 0 61.02z" fill="#5B81FE" p-id="3750"></path></svg>