<?xml version="1.0" standalone="no"?><!DOCTYPE svg PUBLIC "-//W3C//DTD SVG 1.1//EN" "http://www.w3.org/Graphics/SVG/1.1/DTD/svg11.dtd"><svg t="1511851328067" class="icon" style="" viewBox="0 0 1024 1024" version="1.1" xmlns="http://www.w3.org/2000/svg" p-id="2079" xmlns:xlink="http://www.w3.org/1999/xlink" width="200" height="200"><defs><style type="text/css"></style></defs><path d="M991.170444 765.928864c0-1.663691 0.511905-2.751489 0.511905-4.479168V252.424184a34.169657 34.169657 0 0 0-18.684532-30.778287l-441.518043-218.199497a33.017871 33.017871 0 0 0-29.114596 0L55.152192 221.645897a31.610132 31.610132 0 0 0-15.357149 15.165185 33.913705 33.913705 0 0 0-7.742563 21.755961v506.849916a34.937515 34.937515 0 0 0 19.77233 31.418168 28.538703 28.538703 0 0 0 8.254468 5.630955l441.518043 218.199497a35.76936 35.76936 0 0 0 14.845244 3.39137 31.994061 31.994061 0 0 0 14.909233-3.39137l441.518043-218.199497a33.529776 33.529776 0 0 0 18.300603-36.537218zM99.17602 304.446527l379.449565 185.181626 4.41518 445.229354-383.928733-189.532818v-440.878162z m446.573105 189.660794L924.686785 307.325993v443.117746L550.35627 935.4334z m-28.538702-421.873689l364.732296 180.190552-364.732296 180.126564-369.595394-180.126564z" p-id="2080"></path></svg>