<?xml version="1.0" standalone="no"?><!DOCTYPE svg PUBLIC "-//W3C//DTD SVG 1.1//EN" "http://www.w3.org/Graphics/SVG/1.1/DTD/svg11.dtd"><svg t="1512528840954" class="icon" style="" viewBox="0 0 1024 1024" version="1.1" xmlns="http://www.w3.org/2000/svg" p-id="2561" xmlns:xlink="http://www.w3.org/1999/xlink" width="200" height="200"><defs><style type="text/css"></style></defs><path d="M512.22464 1023.99744A511.99872 511.99872 0 0 1 149.985546 149.951625C246.625304 53.247867 311.265142 0 448.2248 0h30.079925v545.918635H1024.22336V575.99856c0 136.703658-53.119867 201.279497-149.759626 298.047255A508.606728 508.606728 0 0 1 512.22464 1023.99744zM418.144875 61.183847C182.625464 76.735808 60.38577 273.087317 60.38577 511.99872A452.478869 452.478869 0 0 0 512.22464 963.83759c238.719403 0 435.198912-122.559694 450.558874-357.823105H418.144875V61.183847z m599.038503 384.639038H574.944483V3.711991h30.079925a411.326972 411.326972 0 0 1 412.15897 412.094969v30.079925z m-382.079045-60.095849h320.639198a351.99912 351.99912 0 0 0-320.639198-320.639199v320.639199z" p-id="2562"></path></svg>