<?xml version="1.0" standalone="no"?><!DOCTYPE svg PUBLIC "-//W3C//DTD SVG 1.1//EN" "http://www.w3.org/Graphics/SVG/1.1/DTD/svg11.dtd"><svg t="1512528801381" class="icon" style="" viewBox="0 0 1024 1024" version="1.1" xmlns="http://www.w3.org/2000/svg" p-id="2129" xmlns:xlink="http://www.w3.org/1999/xlink" width="200" height="200"><defs><style type="text/css"></style></defs><path d="M507.351709 718.583244a213.767643 213.767643 0 1 1 205.216937-213.586995 209.733155 209.733155 0 0 1-205.216937 213.586995z m0-355.697315a142.230753 142.230753 0 1 0 136.570426 142.11032 139.521022 139.521022 0 0 0-136.570426-142.11032zM373.731878 1024h-1.324757a31.252227 31.252227 0 0 1-8.49049-1.505406h-0.903244a509.369153 509.369153 0 0 1-204.373909-124.045449l-0.541947-0.541946a29.44574 29.44574 0 0 1-2.228-2.468866 26.796226 26.796226 0 0 1-1.987136-2.709731l-1.565622-2.589298v-0.421514a23.062819 23.062819 0 0 1-1.264541-2.649514v-0.541946l-0.903244-2.649515v-0.662378c0-0.903244-0.48173-1.806487-0.662379-2.709731v-0.541946c0-0.96346-0.361297-1.987136-0.481729-2.950596v-1.384973a25.652117 25.652117 0 0 1 0-3.010812 29.746821 29.746821 0 0 1 0-3.311893 41.007258 41.007258 0 0 1 1.023676-6.623786c0-1.023676 0.602162-2.047352 0.963459-3.010812l1.204325-2.950596v-0.48173l1.384974-2.649514v-0.96346a125.731504 125.731504 0 0 0 19.630493-67.803483 120.432475 120.432475 0 0 0-117.78296-122.540043H42.241491v-3.37211l-0.421514 3.37211H36.219867l-1.023676-0.361298H34.774677l-1.023676-0.48173-0.782811-0.361297-0.843027-0.361298-0.602163-0.361297-0.782811-0.421514-0.602162-0.361297-0.782811-0.48173-0.541946-0.301081-0.843028-0.541946-0.602162-0.48173-0.662379-0.48173-0.782811-0.602162-0.541946-0.48173-0.722595-0.662379-0.48173-0.421514-0.782811-0.722594-0.421513-0.48173-0.782811-0.843028-0.361298-0.421513-0.782811-0.903244 2.348433-2.348433-2.408649 2.167784-0.722595-0.903243v-0.421514a8.129192 8.129192 0 0 1-0.662379-0.903243l-0.361297-0.541947-0.602162-0.843027-1.625839-3.311893-0.361297-0.662379-0.421514-0.782811v-0.662378l-0.48173-1.023676v-0.541946l-0.48173-1.023676v-0.48173l-0.48173-1.324758v-0.602162l-0.48173-1.44519-0.361297-1.384973a0.722595 0.722595 0 0 0 0-0.361298v-0.722594a557.481926 557.481926 0 0 1 0-242.490789v-0.903243l0.361297-1.44519v-0.301081a13.548653 13.548653 0 0 1 0.421514-1.384974l0.541946-1.445189a4.937731 4.937731 0 0 1 0.541946-1.204325 1.92692 1.92692 0 0 1 0-0.48173l0.541946-1.083892v-0.602162l0.361298-0.722595 0.421514-0.722595 0.361297-0.662379 0.602162-0.843027 0.361298-0.602163 0.602162-0.903243 0.361298-0.48173 0.722594-0.903244V376.073285l0.782812-0.903244 0.481729-0.541946 0.662379-0.662378 0.361297-0.421514 0.602163-0.541946 0.421514-0.421514 0.662378-0.602162 0.602162-0.48173 0.541947-0.48173 0.903243-0.662379 0.421514-0.361297 0.843027-0.602162h0.541946l0.96346-0.602163h0.361298l1.144108-0.602162 1.204325-0.541946 1.204325-0.541946h0.421513l1.144109-0.421514h0.48173l1.083892-0.361297h17.884222a120.432475 120.432475 0 0 0 117.782961-122.540044A125.370206 125.370206 0 0 0 151.955475 175.914512v-0.48173l-0.361297-0.541946c-0.48173-0.843027-1.023676-1.746271-1.44519-2.649515v-0.361297a32.938282 32.938282 0 0 1-2.288217-6.021624c0-0.96346-0.421514-1.92692-0.602162-2.890379v-4.576434c0-1.083892 0-2.167785-0.421514-3.311893v-3.251677a29.566173 29.566173 0 0 1 0.782811-6.503354v-0.843027c0-0.903244 0.421514-1.806487 0.722595-2.709731v-0.602162c0-1.023676 0.662379-1.806487 0.96346-2.649515v-0.602162a27.639253 27.639253 0 0 1 1.264541-2.649515v-0.421513l1.625838-2.589298a28.301632 28.301632 0 0 1 1.987136-2.709731 45.583692 45.583692 0 0 1 2.288217-2.529082l0.662379-0.602162A510.091747 510.091747 0 0 1 362.351009 2.190667h0.421514A34.684553 34.684553 0 0 1 372.407121 0.323963h1.384973a32.697417 32.697417 0 0 1 10.116328 1.565623l0.96346 0.361297h0.361297l1.023676 0.421514h0.96346l1.144108 0.541946a34.744769 34.744769 0 0 1 16.077736 16.740114l0.48173 0.662378v0.361298a115.856041 115.856041 0 0 0 212.804183-0.602163 35.768445 35.768445 0 0 1 14.873411-16.3186l0.722594-0.421514 0.722595-0.361297 0.903244-0.421514 0.722595-0.301081h0.541946l0.843027-0.361297h0.782811a32.516768 32.516768 0 0 1 21.015467-0.602163h0.421514a510.21218 510.21218 0 0 1 205.999748 125.249774h1.92692v1.987136l1.384973 1.565622 0.361298 0.421514c0.602162 0.722595 1.144109 1.565622 1.686054 2.348433l1.565622 2.709731v0.361297a23.725198 23.725198 0 0 1 1.264541 2.709731v0.421514a20.473521 20.473521 0 0 1 1.023676 2.830163v0.361297c0 1.083892 0.602162 2.047352 0.782811 3.010812a1.083892 1.083892 0 0 1 0 0.421514 27.097307 27.097307 0 0 1 0.541947 3.131244 34.985634 34.985634 0 0 1-0.843028 13.006707v0.421514a25.230603 25.230603 0 0 1-0.96346 2.950596 39.923365 39.923365 0 0 1-1.204324 2.830163v0.541946l-1.384974 2.529082v0.541946a125.430423 125.430423 0 0 0-19.028331 66.90024 120.432475 120.432475 0 0 0 117.782961 122.540043h6.443137a36.49104 36.49104 0 0 1 3.673191 0 8.972219 8.972219 0 0 1 1.806487 0h5.419461l1.144109 0.421514 1.204324 0.541946 1.264541 0.602162h0.361298l1.625838 4.094704 1.204325 0.662379h0.421514l0.903243 0.602162 0.782811 0.541947 0.48173 0.361297 1.083892 0.843027a36.129742 36.129742 0 0 1 6.503354 7.466814 4.757083 4.757083 0 0 0 0.421514 0.722595l0.48173 0.782811 0.602162 1.083892v0.541946a2.709731 2.709731 0 0 1 0 0.602162l0.541946 1.083893 0.541946 1.324757a48.17299 48.17299 0 0 1 1.505406 5.058164 557.241061 557.241061 0 0 1 0 243.875762 37.876013 37.876013 0 0 1-1.505406 5.11838l-0.541946 1.144108c0 0.421514-0.421514 0.722595-0.541946 1.083893l-0.361297 0.602162a2.589298 2.589298 0 0 1 0 0.662379 3.432326 3.432326 0 0 1-0.361298 0.662378l-0.361297 0.602163-0.541946 0.963459-0.541947 0.903244v0.361297a42.994394 42.994394 0 0 1-3.071028 3.733407l-1.144108 1.144109a6.021624 6.021624 0 0 1-1.023676 0.963459l-0.421514 0.361298-0.722595 0.541946-0.903243 0.662379a7.828111 7.828111 0 0 1-1.083893 0.722594 33.179147 33.179147 0 0 1-7.225948 3.552758h-4.817299l-0.602162-3.311893 0.541946 3.311893H970.113493a120.432475 120.432475 0 0 0-117.78296 122.540044 126.454099 126.454099 0 0 0 18.968115 66.840023 2.589298 2.589298 0 0 0 0 0.421514 25.049955 25.049955 0 0 1 1.384973 2.529082v0.541946c0.48173 0.903244 0.843027 1.806487 1.204325 2.709731v0.361297l0.96346 3.010812a30.108119 30.108119 0 0 1 0.722595 3.251677v0.301081a33.660877 33.660877 0 0 1 0.48173 6.503354v3.432325a30.108119 30.108119 0 0 1-0.541947 3.010812v0.48173l-0.722594 2.830163v0.48173l-0.96346 2.830163v0.541946a25.591901 25.591901 0 0 1-1.264541 2.649515v0.48173a38.297527 38.297527 0 0 1-1.565622 2.649514c-0.722595 1.083892-1.384973 1.92692-2.047352 2.769947l-1.987136 2.228001a509.489585 509.489585 0 0 1-206.902992 125.972368 31.794173 31.794173 0 0 1-9.935679 1.565623H646.57165a31.432876 31.432876 0 0 1-4.275353-0.782811h-0.48173l-1.324757-0.361298-1.083893-0.361297h-0.541946l-0.782811-0.301081-0.722595-0.301082h-0.421513l-1.023676-0.48173h-0.361298a35.226499 35.226499 0 0 1-16.077735-16.920762 115.856041 115.856041 0 0 0-212.8644-0.662379v0.301081l-0.421513 0.662379a36.129742 36.129742 0 0 1-15.957303 16.619681l-1.023676 0.48173-0.662379 0.361298h-0.602162l-3.010812 2.408649 1.083892 3.191461-0.843027 0.361297h-0.722595l-1.324757 0.421514a31.673741 31.673741 0 0 1-9.514166 1.44519z m137.654319-162.583841a184.261687 184.261687 0 0 1 153.31054 83.640354 437.591398 437.591398 0 0 0 134.703723-82.315597 200.580287 200.580287 0 0 1 32.396336-209.01056 183.779957 183.779957 0 0 1 116.277555-62.384022 485.88482 485.88482 0 0 0 0-158.428921 183.659524 183.659524 0 0 1-116.277555-62.384022 200.580287 200.580287 0 0 1-32.396336-209.01056 438.133344 438.133344 0 0 0-134.703723-82.375813 182.274551 182.274551 0 0 1-306.560865 0 438.073127 438.073127 0 0 0-133.138101 80.99084 200.760936 200.760936 0 0 1-32.516768 211.178344 183.418659 183.418659 0 0 1-117.722744 61.842076 483.114873 483.114873 0 0 0 0 158.007407 183.418659 183.418659 0 0 1 117.722744 61.842076 200.760936 200.760936 0 0 1 32.516768 211.118129 437.832262 437.832262 0 0 0 133.138101 80.990839 184.382119 184.382119 0 0 1 153.250325-83.70057z" p-id="2130"></path></svg>