<?xml version="1.0" standalone="no"?><!DOCTYPE svg PUBLIC "-//W3C//DTD SVG 1.1//EN" "http://www.w3.org/Graphics/SVG/1.1/DTD/svg11.dtd"><svg t="1511855661238" class="icon" style="" viewBox="0 0 1024 1024" version="1.1" xmlns="http://www.w3.org/2000/svg" p-id="2295" xmlns:xlink="http://www.w3.org/1999/xlink" width="200" height="200"><defs><style type="text/css"></style></defs><path d="M512 538.31268312a271.97620969 271.97620969 0 0 1 205.18150969-94.61967468 285.77798719 285.77798719 0 0 1 29.52251906 2.87844562 273.82136719 273.82136719 0 1 0-469.4080575 0 266.7359625 266.7359625 0 0 1 29.52251906-2.87844562A271.97620969 271.97620969 0 0 1 512 538.31268312z m-28.78445625 39.63398251a273.08330438 273.08330438 0 0 1-205.9195725-131.22759844 273.08330438 273.08330438 0 1 0 234.70402875 450.73506468 272.271435 272.271435 0 0 1-68.6398575-179.57072437 266.7359625 266.7359625 0 0 1 39.85540125-140.01054844z m263.488485-131.30140501a273.08330438 273.08330438 0 0 1-205.9195725 131.22759844 267.10499437 267.10499437 0 0 1 39.85540125 140.23196719 272.271435 272.271435 0 0 1-68.6398575 179.57072437A273.08330438 273.08330438 0 1 0 746.70402875 446.57145406zM483.21554375 577.94666562a287.84456438 287.84456438 0 0 0 28.78445625 2.87844563 271.45956562 271.45956562 0 0 0 28.78445625-2.87844563 30.26058281 30.26058281 0 1 0-57.5689125-0.07380656z" p-id="2296"></path></svg>