<?xml version="1.0" standalone="no"?><!DOCTYPE svg PUBLIC "-//W3C//DTD SVG 1.1//EN" "http://www.w3.org/Graphics/SVG/1.1/DTD/svg11.dtd"><svg t="1512528941134" class="icon" style="" viewBox="0 0 1109 1024" version="1.1" xmlns="http://www.w3.org/2000/svg" p-id="3965" xmlns:xlink="http://www.w3.org/1999/xlink" width="216.6015625" height="200"><defs><style type="text/css"></style></defs><path d="M914.742183 182.0018999H732.49385381V122.0024498a60.89944219 60.89944219 0 0 0-61.49943633-59.99945009H427.24665195a60.74944278 60.74944278 0 0 0-60.74944277 59.9994501v59.99945009H183.49888643A120.97389112 120.97389112 0 0 0 62 302.0008001v149.9986248h974.99106299v-149.9986248a121.12388965 121.12388965 0 0 0-122.24887998-119.9989002z m-243.74776552 0H427.24665195v-29.99972461a30.67471846 30.67471846 0 0 1 30.74971816-29.99972548h182.99832276a29.99972461 29.99972461 0 0 1 29.99972461 29.99972548v29.99972461zM549.49553106 601.99804971a59.9994501 59.9994501 0 0 0 60.74944365-59.9994501 58.27446562 58.27446562 0 0 0-8.24992471-29.99972461H496.99601211a58.27446562 58.27446562 0 0 0-8.24992383 29.99972461 59.9994501 59.9994501 0 0 0 60.74944278 59.9994501zM667.24445234 511.998875a130.34880528 130.34880528 0 0 1 3.74996514 29.99972461 121.8738832 121.8738832 0 0 1-243.74776553 0 130.49880381 130.49880381 0 0 1 4.4999587-29.99972461H62v329.9969751A120.97389112 120.97389112 0 0 0 183.49888643 961.99475029h731.24329658A121.12388965 121.12388965 0 0 0 1036.99106299 841.9958501V511.998875H667.24445234z" fill="#76838f" p-id="3966"></path></svg>