<?xml version="1.0" standalone="no"?><!DOCTYPE svg PUBLIC "-//W3C//DTD SVG 1.1//EN" "http://www.w3.org/Graphics/SVG/1.1/DTD/svg11.dtd"><svg t="1512528902851" class="icon" style="" viewBox="0 0 1024 1024" version="1.1" xmlns="http://www.w3.org/2000/svg" p-id="3425" xmlns:xlink="http://www.w3.org/1999/xlink" width="200" height="200"><defs><style type="text/css"></style></defs><path d="M512 32a480 480 0 1 0 480 480A480 480 0 0 0 512 32z m194.21538469 547.16307656h1.47692343a51.02769188 51.02769188 0 0 1 0 102.01846219h-126.27692343v112.20923062h-0.36923063c0 0.88615406 0.36923062 1.73538469 0.36923063 2.62153875a63.13846125 63.13846125 0 1 1-126.27692344 0V681.18153875H326.64615406a51.02769188 51.02769188 0 0 1 0-101.90769281h128.49230719V502.76923063H326.64615406a51.02769188 51.02769188 0 0 1 0-101.90769188h61.29230719L335.13846125 236.29538469l-0.73846125-2.06769281a51.28615406 51.28615406 0 0 1 33.23076938-62.10461532 50.76923062 50.76923062 0 0 1 63.13846124 30.6830775l0.36923063 1.58769188a0.51692344 0.51692344 0 0 1 0.36923062 0.55384594v0.55384687l63.13846219 195.69230719h46.52307657l62.76923062-195.3969225s0.36923062-0.40615406 0.36923062-0.62769281v-0.59076938l0.73846219-1.55076937a50.54769187 50.54769187 0 0 1 96 31.42153875l-0.36923062 2.14153875-53.16923156 164.49230718h60.18461625a51.02769188 51.02769188 0 0 1 0 102.01846219h-126.27692344v76.39384594h124.8z" fill="#FF455B" p-id="3426"></path></svg>