<?xml version="1.0" standalone="no"?><!DOCTYPE svg PUBLIC "-//W3C//DTD SVG 1.1//EN" "http://www.w3.org/Graphics/SVG/1.1/DTD/svg11.dtd"><svg t="1512528891926" class="icon" style="" viewBox="0 0 1024 1024" version="1.1" xmlns="http://www.w3.org/2000/svg" p-id="3209" xmlns:xlink="http://www.w3.org/1999/xlink" width="200" height="200"><defs><style type="text/css"></style></defs><path d="M476.124201 473.941387a60.761716 60.761716 0 0 0 71.376715 0l432.469685-260.689725a18.960584 18.960584 0 0 0 4.612034-25.622411 18.301722 18.301722 0 0 0-6.881448-6.149378L539.667779 6.881447a60.542096 60.542096 0 0 0-55.673838 0L45.960533 181.479873a18.81417 18.81417 0 0 0-8.199171 24.743928 18.301722 18.301722 0 0 0 5.893154 7.137671z m501.467176 189.239803l-118.302329-60.871527-272.43943 198.24425a132.8705 132.8705 0 0 1-150.257136 0l-272.256413-198.317457-118.485346 60.90813a18.81417 18.81417 0 0 0-8.199172 24.743928 17.899084 17.899084 0 0 0 5.929758 7.137671l432.433082 317.242045a60.761716 60.761716 0 0 0 71.376715 0l432.469685-317.242045a18.887377 18.887377 0 0 0 4.648637-25.62241 18.301722 18.301722 0 0 0-6.918051-6.185982z m0-249.086434l-118.302329-60.834923-272.43943 164.203048a132.8705 132.8705 0 0 1-150.257136 0L164.336069 353.150023 45.850723 414.058153a18.81417 18.81417 0 0 0-8.199172 24.743928 17.899084 17.899084 0 0 0 5.929758 7.137671l412.520808 297.110151a99.048918 99.048918 0 0 0 114.568779-2.45243l409.189895-294.657721a18.887377 18.887377 0 0 0 4.648637-25.62241 18.301722 18.301722 0 0 0-6.918051-6.185982z" fill="#9771F8" p-id="3210"></path></svg>