<?xml version="1.0" standalone="no"?><!DOCTYPE svg PUBLIC "-//W3C//DTD SVG 1.1//EN" "http://www.w3.org/Graphics/SVG/1.1/DTD/svg11.dtd"><svg t="1512528912008" class="icon" style="" viewBox="0 0 1317 1024" version="1.1" xmlns="http://www.w3.org/2000/svg" p-id="3533" xmlns:xlink="http://www.w3.org/1999/xlink" width="257.2265625" height="200"><defs><style type="text/css"></style></defs><path d="M1125.85271415 593.19285753a95.52857167 95.52857167 0 0 0-14.33571415 1.22142832l-203.65714249-324.70714336a124.39285753 124.39285753 0 1 0-169.00714336 16.13571504l-227.7 430.71428496a122.14285753 122.14285753 0 0 0-89.61428583 9.64285751L232.79557168 501.77857168a93.21428585 93.21428585 0 1 0-77.52857168 41.59285664 92.7 92.7 0 0 0 27.51428585-4.17857079l192.34285664 228.72857079a124.45714249 124.45714249 0 1 0 190.15714336-20.57142832l230.97857168-436.75714249a118.54285751 118.54285751 0 0 0 59.91428496-5.72142918l200.44285751 319.5a93.08571415 93.08571415 0 1 0 69.17142832-31.05000001" fill="#5B81FE" p-id="3534"></path></svg>