<?xml version="1.0" standalone="no"?><!DOCTYPE svg PUBLIC "-//W3C//DTD SVG 1.1//EN" "http://www.w3.org/Graphics/SVG/1.1/DTD/svg11.dtd"><svg t="1512528999842" class="icon" style="" viewBox="0 0 1024 1024" version="1.1" xmlns="http://www.w3.org/2000/svg" p-id="4829" xmlns:xlink="http://www.w3.org/1999/xlink" width="200" height="200"><defs><style type="text/css"></style></defs><path d="M932 782L671.19999969 658.95999969A361.51999969 361.51999969 0 0 0 781.59999969 392V242C781.59999969 142.95999969 644 32 512 32S241.59999969 142.95999969 241.59999969 242V392a381.12 381.12 0 0 0 114.40000031 266.95999969L92 782a103.12000031 103.12000031 0 0 0-60 60v90a60.31999969 60.31999969 0 0 0 60 60h840a60.31999969 60.31999969 0 0 0 60-60v-90a94.8 94.8 0 0 0-60-60zM92 932v-60a42.24 42.24 0 0 1 24-36l264-123.04000031a56.80000031 56.80000031 0 0 0 32.80000031-48 58.56 58.56 0 0 0-20.80000031-54A313.27999969 313.27999969 0 0 1 301.59999969 392V242C301.59999969 178.95999969 409.59999969 92 512 92s209.59999969 86.95999969 209.59999969 150V392a316.96000031 316.96000031 0 0 1-86.4 218.95999969 60.96 60.96 0 0 0-21.6 54 60.24 60.24 0 0 0 36 48l261.6 123.04000031a32.56000031 32.56000031 0 0 1 24 36v60H92z" fill="#767D8F" p-id="4830"></path></svg>