<?xml version="1.0" standalone="no"?><!DOCTYPE svg PUBLIC "-//W3C//DTD SVG 1.1//EN" "http://www.w3.org/Graphics/SVG/1.1/DTD/svg11.dtd"><svg t="1512528824930" class="icon" style="" viewBox="0 0 1148 1024" version="1.1" xmlns="http://www.w3.org/2000/svg" p-id="2345" xmlns:xlink="http://www.w3.org/1999/xlink" width="224.21875" height="200"><defs><style type="text/css"></style></defs><path d="M1147.516414 832.0006V629.761232a46.719854 46.719854 0 0 0-24.959922-43.391864 40.447874 40.447874 0 0 0 1.279996-8.767973 78.591754 78.591754 0 0 0-54.39983-51.19984L908.79716 448.0018a143.679551 143.679551 0 0 0-42.239868-12.79996 115.903638 115.903638 0 0 0 4.479986-37.119884V196.162587a46.655854 46.655854 0 0 0-24.959922-43.263865 20.543936 20.543936 0 0 0 0.639998-8.831972 77.311758 77.311758 0 0 0-54.39983-51.19984L632.318024 14.915153a142.143556 142.143556 0 0 0-61.439808-14.783953 114.815641 114.815641 0 0 0-58.239818 15.359952L350.718904 92.80291a71.487777 71.487777 0 0 0-49.919844 51.19984 25.59992 25.59992 0 0 0 1.919994 9.983969 78.335755 78.335755 0 0 0-24.959922 43.711863l-0.639998 187.967413a95.167703 95.167703 0 0 0 13.439958 48.191849 112.575648 112.575648 0 0 0-55.039828 15.039953L73.59977 526.273555a71.551776 71.551776 0 0 0-49.919844 51.19984 25.59992 25.59992 0 0 0 1.919994 9.919969 78.527755 78.527755 0 0 0-24.959922 43.775864L0 819.20064a117.567633 117.567633 0 0 0 50.559842 89.59972l165.759482 103.743676a88.255724 88.255724 0 0 0 40.959872 11.455964 50.431842 50.431842 0 0 0 35.19989-14.399955 52.223837 52.223837 0 0 0 36.479886 12.79996 125.759607 125.759607 0 0 0 42.879866-9.279971l177.279446-90.943716a84.031737 84.031737 0 0 0 32.639898-34.623892 121.59962 121.59962 0 0 0 23.039928 21.119934l165.759482 103.743676a87.999725 87.999725 0 0 0 40.319874 11.455964 53.823832 53.823832 0 0 1 71.679776-1.471995 126.527605 126.527605 0 0 0 43.519864-9.279971l177.279446-90.943716a99.583689 99.583689 0 0 0 44.159862-90.303718z m-300.159062-358.39888a98.687692 98.687692 0 0 1 44.159862 10.943966l161.279496 78.335755a108.79966 108.79966 0 0 1 25.59992 14.143956l-198.39938 105.983669a68.095787 68.095787 0 0 1-28.79991 5.567982 95.295702 95.295702 0 0 1-30.079906-5.567982 131.711588 131.711588 0 0 0-23.039928-11.583964L634.878016 584.641373c7.039978-1.983994 12.159962-4.159987 14.079956-4.863985l177.279446-90.879716a70.975778 70.975778 0 0 0 18.559942-15.103953zM575.9982 590.657354a70.847779 70.847779 0 0 0-7.679976-4.287986 20.607936 20.607936 0 0 0 1.279996-8.767973V576.0014a45.311858 45.311858 0 0 0 8.959972 5.375983 17.599945 17.599945 0 0 0 1.279996 5.759982 18.047944 18.047944 0 0 0-3.839988 3.32799zM349.438908 441.66582a76.79976 76.79976 0 0 1-32.639898-56.127825V203.842563a31.9999 31.9999 0 0 1 12.79996-20.479936l173.439458 92.67171c6.39998 3.32799 12.79996 4.991984 18.559942 7.423977a65.983794 65.983794 0 0 1 31.9999 58.623817v169.087472a67.391789 67.391789 0 0 1-8.319974 31.487901 158.143506 158.143506 0 0 0-30.079906-16.447948L376.318824 458.625767z m473.59852-5.567983a103.999675 103.999675 0 0 0-33.279896 12.79996L627.19804 526.209556a139.327565 139.327565 0 0 0-30.719904 19.967937 10.879966 10.879966 0 0 1-2.559992-8.767972v-192.639398a52.607836 52.607836 0 0 1 28.159912-54.207831l198.39938-105.791669a11.263965 11.263965 0 0 1 10.879966 11.519964v203.903362a79.103753 79.103753 0 0 1-8.319974 35.903888z m-455.038578-307.19904L531.19834 51.07504l2.559992-1.471995a71.615776 71.615776 0 0 1 37.119884-9.53597 99.583689 99.583689 0 0 1 44.159862 10.879966l161.279496 78.399755a122.879616 122.879616 0 0 1 25.59992 14.143956L602.878116 249.53842a63.487802 63.487802 0 0 1-28.159912 5.567983 100.159687 100.159687 0 0 1-30.719904-5.567983 96.575698 96.575698 0 0 0-23.039928-11.583964L355.838888 149.762732a54.015831 54.015831 0 0 0-8.959972-2.367993l-4.479986-2.367992a87.743726 87.743726 0 0 1 25.59992-16.12795zM90.239718 562.369443l163.19949-77.823757 3.19999-1.407996a69.887782 69.887782 0 0 1 37.119884-9.53597 98.687692 98.687692 0 0 1 44.159862 10.943966l19.19994 9.47197L493.438458 579.20139a87.679726 87.679726 0 0 0 15.359952 6.39998l-183.039428 97.535695a66.943791 66.943791 0 0 1-28.159912 5.567983 98.943691 98.943691 0 0 1-30.719904-5.503983 95.9997 95.9997 0 0 0-23.039928-11.839963L78.719754 583.233377a53.951831 53.951831 0 0 0-8.959972-2.367992l-4.479986-2.431993a93.439708 93.439708 0 0 1 24.959922-16.063949z m186.239418 382.334805a62.719804 62.719804 0 0 1-10.239968 35.519889c-5.119984 5.119984-10.879966 7.423977-30.719904-2.623992l-163.839488-102.39968a78.655754 78.655754 0 0 1-31.9999-56.063825v-181.759432a31.423902 31.423902 0 0 1 12.79996-20.479936l173.439458 92.671711c6.39998 3.19999 12.79996 4.863985 18.559942 7.359977a65.983794 65.983794 0 0 1 31.9999 58.623816v169.087472z m277.759132-111.103653a62.975803 62.975803 0 0 1-23.679926 53.375833l-175.359452 89.59972a81.791744 81.791744 0 0 1-26.239918 5.631983c-10.239968 0-12.159962-1.727995-12.159962-11.711964V778.240768a52.671835 52.671835 0 0 1 28.159912-54.27183l198.39938-105.72767a11.263965 11.263965 0 0 1 10.879966 11.519964v18.431942l-0.639998 170.879466c0 1.279996 0.639998 2.367993 0.639998 3.647989v10.879966z m276.479136 111.103653a58.943816 58.943816 0 0 1-10.879966 35.519889c-4.479986 5.119984-10.879966 7.423977-30.079906-2.623992l-163.839488-102.39968a78.271755 78.271755 0 0 1-31.9999-54.52783v-184.319424a28.86391 28.86391 0 0 1 12.159962-19.519939l174.079456 92.735711a182.719429 182.719429 0 0 0 18.559942 7.487976 65.983794 65.983794 0 0 1 31.9999 58.623817v169.087472z m277.119134-111.103653a61.055809 61.055809 0 0 1-23.679926 53.375833l-174.719454 89.59972a89.919719 89.919719 0 0 1-26.879916 5.631983c-9.59997 0-11.519964-1.727995-11.519964-11.711964v-188.60741l-0.639998-3.647989a53.567833 53.567833 0 0 1 28.159912-54.27183l198.39938-105.72767a11.263965 11.263965 0 0 1 10.879966 11.519964v203.839363z" p-id="2346"></path></svg>